<svg width="34" height="32" viewBox="0 0 34 32" fill="none" xmlns="http://www.w3.org/2000/svg">
<rect x="1.37292" y="0.5" width="31.4333" height="31" rx="6.5" fill="white" stroke="#F8F8F8"/>
<path d="M22.3178 11.3587L22.3183 11.3592L10.5174 12.5048C10.7059 12.0763 10.9788 11.6871 11.3214 11.3598L11.3214 11.3598L11.3224 11.3589C11.6684 11.0271 12.0713 10.7663 12.52 10.5845L12.5207 10.5842C12.9847 10.3955 13.4762 10.3 13.987 10.3C14.6948 10.3 15.3832 10.4897 15.9798 10.846L15.9798 10.846C16.1225 10.9312 16.2574 11.0244 16.3849 11.1256L16.8202 11.4713L17.2555 11.1256C17.3829 11.0244 17.5179 10.9312 17.6606 10.846L17.6606 10.846C18.2571 10.4897 18.9455 10.3 19.6534 10.3L19.6549 10.3C20.158 10.2989 20.6559 10.3956 21.1196 10.5842L21.1205 10.5845C21.5675 10.7656 21.9738 11.0286 22.3178 11.3587ZM23.7637 12.2231L23.1229 12.5048C23.123 12.505 23.1231 12.5052 23.1232 12.5053C23.1232 12.5054 23.1233 12.5055 23.1233 12.5056L23.7637 12.2231ZM22.3819 16.7266C21.8667 17.4785 21.1451 18.2812 20.2281 19.1099C18.7027 20.4874 17.1912 21.4398 17.1391 21.4726L17.1389 21.4726L16.8193 21.6733L16.4997 21.4726L16.4998 21.4725L16.4887 21.4659C16.4889 21.466 16.4886 21.4658 16.4877 21.4652C16.4825 21.462 16.4587 21.4471 16.4147 21.4188C16.3661 21.3875 16.2971 21.3426 16.2106 21.2849C16.0376 21.1696 15.7954 21.0041 15.5069 20.7961C14.9288 20.3795 14.1702 19.7966 13.4107 19.11L13.4106 19.1099C12.4936 18.2812 11.772 17.4785 11.2568 16.7266H22.3819ZM10.2219 13.9084C10.2219 13.4222 10.3214 12.9508 10.5174 12.5048L11.2566 16.7263C10.9318 16.2516 10.6851 15.7924 10.5167 15.3618C10.3162 14.8486 10.2219 14.3611 10.2219 13.9084Z" stroke="#ECECEC" stroke-width="1.4"/>
</svg>
