<svg width="33" height="32" viewBox="0 0 33 32" fill="none" xmlns="http://www.w3.org/2000/svg">
<rect x="0.40625" width="32.4333" height="32" rx="7" fill="#FEF0F0"/>
<path d="M23.297 12.2231C23.0706 11.7098 22.7441 11.2446 22.3357 10.8537C21.9271 10.4615 21.4454 10.1499 20.9166 9.93576C20.3684 9.7128 19.7803 9.59868 19.1866 9.60002C18.3538 9.60002 17.5411 9.82329 16.835 10.245C16.666 10.3459 16.5055 10.4567 16.3535 10.5775C16.2014 10.4567 16.0409 10.3459 15.872 10.245C15.1658 9.82329 14.3532 9.60002 13.5203 9.60002C12.9206 9.60002 12.3394 9.71248 11.7903 9.93576C11.2598 10.1508 10.7817 10.46 10.3712 10.8537C9.96236 11.2442 9.63576 11.7095 9.40992 12.2231C9.17509 12.7573 9.05514 13.3246 9.05514 13.9084C9.05514 14.4592 9.17002 15.0331 9.39809 15.6169C9.589 16.1048 9.86268 16.6109 10.2124 17.122C10.7665 17.9307 11.5285 18.7742 12.4745 19.6293C14.0423 21.0467 15.5949 22.0258 15.6608 22.0655L16.0612 22.3169C16.2386 22.4277 16.4667 22.4277 16.6441 22.3169L17.0445 22.0655C17.1103 22.0242 18.6612 21.0467 20.2307 19.6293C21.1768 18.7742 21.9387 17.9307 22.4929 17.122C22.8426 16.6109 23.1179 16.1048 23.3072 15.6169C23.5352 15.0331 23.6501 14.4592 23.6501 13.9084C23.6518 13.3246 23.5319 12.7573 23.297 12.2231V12.2231Z" fill="#FF8585"/>
</svg>
