<svg width="33" height="32" viewBox="0 0 33 32" fill="none" xmlns="http://www.w3.org/2000/svg">
<rect x="0.416748" width="32.4333" height="32" rx="8" fill="url(#paint0_linear_60_200)"/>
<g clip-path="url(#clip0_60_200)">
<g filter="url(#filter0_d_60_200)">
<path d="M20.2179 11.6207C20.4005 11.4363 20.6487 11.3318 20.9082 11.3299C21.1677 11.3279 21.4175 11.4288 21.6028 11.6105C21.7882 11.7921 21.8941 12.0398 21.8974 12.2993C21.9007 12.5588 21.8012 12.809 21.6205 12.9954L16.3939 19.5294C16.3041 19.626 16.1957 19.7036 16.0753 19.7575C15.9548 19.8114 15.8248 19.8404 15.6929 19.8429C15.5609 19.8454 15.4299 19.8213 15.3075 19.772C15.1851 19.7227 15.0739 19.6492 14.9805 19.556L11.5152 16.092C11.331 15.9078 11.2276 15.6579 11.2277 15.3975C11.2278 15.137 11.3313 14.8872 11.5155 14.703C11.6998 14.5189 11.9496 14.4155 12.2101 14.4155C12.4706 14.4156 12.7204 14.5191 12.9045 14.7034L15.6452 17.4447L20.1919 11.6514C20.2001 11.6408 20.2084 11.6301 20.2179 11.6207Z" fill="white"/>
</g>
</g>
<defs>
<filter id="filter0_d_60_200" x="11.2277" y="11.3298" width="10.6698" height="10.5132" filterUnits="userSpaceOnUse" color-interpolation-filters="sRGB">
<feFlood flood-opacity="0" result="BackgroundImageFix"/>
<feColorMatrix in="SourceAlpha" type="matrix" values="0 0 0 0 0 0 0 0 0 0 0 0 0 0 0 0 0 0 127 0" result="hardAlpha"/>
<feOffset dy="2"/>
<feColorMatrix type="matrix" values="0 0 0 0 0 0 0 0 0 0 0 0 0 0 0 0 0 0 0.1 0"/>
<feBlend mode="normal" in2="BackgroundImageFix" result="effect1_dropShadow_60_200"/>
<feBlend mode="normal" in="SourceGraphic" in2="effect1_dropShadow_60_200" result="shape"/>
</filter>
<linearGradient id="paint0_linear_60_200" x1="16.6334" y1="0" x2="16.6334" y2="32" gradientUnits="userSpaceOnUse">
<stop stop-color="#89F09C"/>
<stop offset="1" stop-color="#3CC755"/>
</linearGradient>
<clipPath id="clip0_60_200">
<rect width="10.8111" height="10.6667" fill="white" transform="translate(11.2279 10.6667)"/>
</clipPath>
</defs>
</svg>
